<svg width="46" height="46" viewBox="0 0 46 46" fill="none" xmlns="http://www.w3.org/2000/svg">
<path d="M1.44682 23.3772C-0.583649 24.5362 -0.394977 27.6268 1.77026 28.5252L14.3753 33.7811V43.062C14.3753 44.6881 15.6871 45.9999 17.3132 45.9999C18.1847 45.9999 19.0113 45.6135 19.5683 44.9397L25.1386 38.2643L36.2703 42.9002C37.9683 43.61 39.9359 42.4959 40.2144 40.6811L45.9644 3.30611C46.1351 2.219 45.6589 1.1229 44.7515 0.50298C43.8441 -0.116942 42.6581 -0.170848 41.6968 0.377199L1.44682 23.3772ZM6.12768 25.6682L36.8093 8.1397L17.0796 30.1874L17.1874 30.2772L6.12768 25.6682ZM36.2343 38.2194L21.2663 31.9752L40.5019 10.4756L36.2343 38.2194Z" fill="white"/>
</svg>
