<svg width="40" height="40" viewBox="0 0 40 40" fill="none" xmlns="http://www.w3.org/2000/svg">
<g clip-path="url(#clip0_196_1342)">
<path d="M13.9086 22.215C13.9086 24.6628 11.926 26.6454 9.47823 26.6454C7.03045 26.6454 5.04785 24.6628 5.04785 22.215C5.04785 19.7673 7.03045 17.7847 9.47823 17.7847C11.926 17.7847 13.9086 19.7673 13.9086 22.215Z" fill="#143763"/>
<path fill-rule="evenodd" clip-rule="evenodd" d="M9.47823 24.4302C10.0657 24.4302 10.6292 24.1969 11.0446 23.7814C11.46 23.366 11.6934 22.8026 11.6934 22.215C11.6934 21.6275 11.46 21.0641 11.0446 20.6487C10.6292 20.2332 10.0657 19.9999 9.47823 19.9999C8.89073 19.9999 8.32728 20.2332 7.91186 20.6487C7.49643 21.0641 7.26304 21.6275 7.26304 22.215C7.26304 22.8026 7.49643 23.366 7.91186 23.7814C8.32728 24.1969 8.89073 24.4302 9.47823 24.4302ZM9.47823 26.6454C11.926 26.6454 13.9086 24.6628 13.9086 22.215C13.9086 19.7673 11.926 17.7847 9.47823 17.7847C7.03045 17.7847 5.04785 19.7673 5.04785 22.215C5.04785 24.6628 7.03045 26.6454 9.47823 26.6454Z" fill="#143763"/>
<path d="M0.0634766 33.8946C0.0634766 30.5475 6.33579 28.8606 9.47803 28.8606C12.6203 28.8606 18.8926 30.5475 18.8926 33.8946V39.9365H0.0634766V33.8946Z" fill="#143763"/>
<path fill-rule="evenodd" clip-rule="evenodd" d="M2.6486 33.2721C2.2986 33.6177 2.27867 33.816 2.27867 33.8957V37.7214H16.6774V33.8946C16.6774 33.8171 16.6575 33.6177 16.3075 33.2721C15.9375 32.9078 15.3272 32.5168 14.491 32.159C12.8075 31.438 10.7518 31.0758 9.47803 31.0758C8.2043 31.0758 6.1475 31.438 4.46506 32.159C3.62882 32.5168 3.01854 32.9078 2.6486 33.2721ZM9.47803 28.8606C6.33579 28.8606 0.0634766 30.5475 0.0634766 33.8946V39.9365H18.8926V33.8946C18.8926 30.5475 12.6203 28.8606 9.47803 28.8606Z" fill="#143763"/>
<path d="M34.9526 22.215C34.9526 24.6628 32.97 26.6454 30.5222 26.6454C28.0744 26.6454 26.0918 24.6628 26.0918 22.215C26.0918 19.7673 28.0744 17.7847 30.5222 17.7847C32.97 17.7847 34.9526 19.7673 34.9526 22.215Z" fill="#143763"/>
<path fill-rule="evenodd" clip-rule="evenodd" d="M30.5222 24.4302C31.1097 24.4302 31.6731 24.1969 32.0886 23.7814C32.504 23.366 32.7374 22.8026 32.7374 22.215C32.7374 21.6275 32.504 21.0641 32.0886 20.6487C31.6731 20.2332 31.1097 19.9999 30.5222 19.9999C29.9347 19.9999 29.3712 20.2332 28.9558 20.6487C28.5404 21.0641 28.307 21.6275 28.307 22.215C28.307 22.8026 28.5404 23.366 28.9558 23.7814C29.3712 24.1969 29.9347 24.4302 30.5222 24.4302ZM30.5222 26.6454C32.97 26.6454 34.9526 24.6628 34.9526 22.215C34.9526 19.7673 32.97 17.7847 30.5222 17.7847C28.0744 17.7847 26.0918 19.7673 26.0918 22.215C26.0918 24.6628 28.0744 26.6454 30.5222 26.6454Z" fill="#143763"/>
<path d="M24.4306 20C24.4306 22.4477 22.448 24.4303 20.0002 24.4303C17.5524 24.4303 15.5698 22.4477 15.5698 20C15.5698 17.5522 17.5524 15.5696 20.0002 15.5696C22.448 15.5696 24.4306 17.5522 24.4306 20Z" fill="#143763"/>
<path fill-rule="evenodd" clip-rule="evenodd" d="M20.0002 22.2151C20.5877 22.2151 21.1512 21.9818 21.5666 21.5663C21.982 21.1509 22.2154 20.5875 22.2154 20C22.2154 19.4125 21.982 18.849 21.5666 18.4336C21.1512 18.0182 20.5877 17.7848 20.0002 17.7848C19.4127 17.7848 18.8493 18.0182 18.4338 18.4336C18.0184 18.849 17.785 19.4125 17.785 20C17.785 20.5875 18.0184 21.1509 18.4338 21.5663C18.8493 21.9818 19.4127 22.2151 20.0002 22.2151ZM20.0002 24.4303C22.448 24.4303 24.4306 22.4477 24.4306 20C24.4306 17.5522 22.448 15.5696 20.0002 15.5696C17.5524 15.5696 15.5698 17.5522 15.5698 20C15.5698 22.4477 17.5524 24.4303 20.0002 24.4303Z" fill="#143763"/>
<path d="M18.8925 7.63143C18.8925 6.21172 18.3285 4.85017 17.3246 3.84628C16.3208 2.8424 14.9592 2.27842 13.5395 2.27842H10.0295C8.57718 2.27609 7.18208 2.8446 6.14504 3.8614C5.10799 4.87819 4.51207 6.26181 4.48577 7.71392C4.45947 9.16604 5.00489 10.5703 6.00443 11.624C7.00398 12.6777 8.37757 13.2964 9.82906 13.3466L10.0317 13.3544V15.5696C10.0317 15.5696 18.8925 14.277 18.8925 7.63143ZM22.2153 5.8626C22.2153 4.32451 22.8263 2.84942 23.9139 1.76183C25.0015 0.674236 26.4766 0.0632324 28.0147 0.0632324H34.3988C35.8676 0.0632324 37.2762 0.646696 38.3148 1.68527C39.3533 2.72384 39.9368 4.13245 39.9368 5.60121C39.9368 7.06997 39.3533 8.47858 38.3148 9.51715C37.2762 10.5557 35.8676 11.1392 34.3988 11.1392H32.1836V14.462C32.1836 14.462 22.2153 13.062 22.2153 5.8626ZM21.1077 33.8947C21.1077 30.5476 27.38 28.8607 30.5223 28.8607C33.6645 28.8607 39.9368 30.5476 39.9368 33.8947V39.9367H21.1077V33.8947Z" fill="#143763"/>
<path fill-rule="evenodd" clip-rule="evenodd" d="M23.6931 33.2723C23.3431 33.6178 23.3232 33.8161 23.3232 33.8958V37.7215H37.7219V33.8947C37.7219 33.8172 37.702 33.6178 37.352 33.2723C36.982 32.9079 36.3717 32.5169 35.5355 32.1591C33.852 31.4381 31.7963 31.0759 30.5225 31.0759C29.2488 31.0759 27.192 31.4381 25.5095 32.1591C24.6733 32.5169 24.063 32.9079 23.6931 33.2723ZM30.5225 28.8607C27.3803 28.8607 21.108 30.5476 21.108 33.8947V39.9366H39.9371V33.8947C39.9371 30.5476 33.6648 28.8607 30.5225 28.8607ZM20.0004 31.6795C20.0004 29.8221 17.9546 28.4753 15.5645 27.6446C16.9515 26.9891 18.4662 26.648 20.0004 26.6455C21.5345 26.648 23.0492 26.9891 24.4363 27.6446C22.0472 28.4753 20.0004 29.8221 20.0004 31.6795Z" fill="#143763"/>
<path fill-rule="evenodd" clip-rule="evenodd" d="M20.0004 31.6795C20.0004 30.6904 20.5807 29.8454 21.4845 29.1465C21.5364 29.1069 21.5888 29.0681 21.6418 29.0302C22.4127 28.4697 23.3918 28.0079 24.4363 27.6457C23.3989 27.1565 22.2884 26.8404 21.1489 26.7098C20.386 26.6241 19.6159 26.6241 18.8529 26.7098C17.7131 26.8399 16.6023 27.1557 15.5645 27.6446C16.6089 28.0079 17.588 28.4697 18.36 29.0291C18.4132 29.0678 18.4641 29.1066 18.5151 29.1465C19.42 29.8442 20.0004 30.6904 20.0004 31.6795Z" fill="#143763"/>
</g>
<defs>
<clipPath id="clip0_196_1342">
<rect width="40" height="40" fill="white"/>
</clipPath>
</defs>
</svg>
