<svg width="20" height="20" viewBox="0 0 20 20" fill="none" xmlns="http://www.w3.org/2000/svg">
<g clip-path="url(#clip0_207_96)">
<path d="M18.75 2.9165H1.25C0.918479 2.9165 0.600537 3.0482 0.366116 3.28262C0.131696 3.51704 0 3.83498 0 4.1665L0 15.8332C0 16.1647 0.131696 16.4826 0.366116 16.7171C0.600537 16.9515 0.918479 17.0832 1.25 17.0832H18.75C19.0815 17.0832 19.3995 16.9515 19.6339 16.7171C19.8683 16.4826 20 16.1647 20 15.8332V4.1665C20 3.83498 19.8683 3.51704 19.6339 3.28262C19.3995 3.0482 19.0815 2.9165 18.75 2.9165ZM18.4833 3.74984L10 10.3082L1.51667 3.74984H18.4833ZM0.833333 15.6623V4.27484L7.25417 9.23734L0.833333 15.6623ZM1.42083 16.2498L7.91667 9.754L9.74167 11.1665C9.81452 11.2226 9.90389 11.253 9.99583 11.253C10.0878 11.253 10.1771 11.2226 10.25 11.1665L12.0833 9.754L18.5792 16.2498H1.42083ZM19.1667 15.6623L12.7458 9.23734L19.1667 4.27484V15.6623Z" fill="white"/>
</g>
<defs>
<clipPath id="clip0_207_96">
<rect width="20" height="20" fill="white"/>
</clipPath>
</defs>
</svg>
