<svg width="189" height="188" viewBox="0 0 189 188" fill="none" xmlns="http://www.w3.org/2000/svg">
<g filter="url(#filter0_d_111_2879)">
<circle cx="94.6721" cy="89.7053" r="29.7053" fill="#AED6E4"/>
<circle cx="94.6721" cy="89.7053" r="28.2053" stroke="white" stroke-width="3"/>
</g>
<circle cx="119.55" cy="112.356" r="10.0255" fill="#66B684"/>
<path d="M123.264 109.571L118.158 114.676L115.837 112.356" stroke="white" stroke-width="1.5" stroke-linecap="round" stroke-linejoin="round"/>
<g clip-path="url(#clip0_111_2879)">
<path d="M111.008 87.522V91.2695C110.74 91.1821 110.465 91.1072 110.196 91.0323C109.797 90.9259 109.403 90.8322 109.01 90.7573C108.729 90.6949 108.454 90.6449 108.179 90.6075C107.904 90.5575 107.629 90.5199 107.355 90.4951C106.992 90.445 106.624 90.4138 106.262 90.3889C106.154 90.3765 106.045 90.3701 105.937 90.3701C105.862 90.3641 105.781 90.3641 105.699 90.3577C105.662 90.3577 105.624 90.3513 105.581 90.3513C105.468 90.3453 105.35 90.3389 105.231 90.3389C104.975 90.3328 104.719 90.3328 104.469 90.3328C104.282 90.3328 104.088 90.3328 103.901 90.3389C103.751 90.3389 103.607 90.3453 103.457 90.3513H103.413C103.332 90.3513 103.245 90.3577 103.164 90.3641C102.908 90.3701 102.651 90.3826 102.395 90.4077C102.335 90.4052 102.274 90.4097 102.214 90.4202C102.002 90.4326 101.789 90.4514 101.571 90.4702C101.39 90.4887 101.209 90.5014 101.027 90.5263C100.784 90.5451 100.54 90.57 100.297 90.6075C99.8469 90.6576 99.3912 90.72 98.9412 90.7886C98.6416 90.8262 98.3354 90.8762 98.0358 90.9259H98.017C97.561 90.9948 97.0989 91.0697 96.6428 91.1509V98.6459L96.0182 98.7584C95.1877 98.9021 94.3505 99.0519 93.52 99.1956L92.8954 99.3081V91.8129C92.4393 91.8941 91.9772 91.969 91.5212 92.0378C90.066 92.2689 88.6106 92.4626 87.1554 92.5563C84.2515 92.8186 81.3243 92.5262 78.5298 91.6943V87.9468C81.3199 88.7787 84.2432 89.0714 87.143 88.8086C88.6045 88.7149 90.0597 88.5214 91.5212 88.2904C91.9772 88.2215 92.4393 88.1466 92.8954 88.0654V80.5704L93.52 80.4579C94.3505 80.3142 95.1877 80.1644 96.0182 80.0207L96.6428 79.9082V87.4034C97.0989 87.3222 97.561 87.2473 98.017 87.1785C98.017 87.1724 98.0231 87.1724 98.0294 87.1724L98.0358 87.1785C98.3854 87.116 98.7353 87.066 99.085 87.0162C99.4536 86.9662 99.8221 86.9162 100.19 86.8725C100.192 86.8708 100.194 86.8697 100.197 86.8697C100.199 86.8697 100.201 86.8708 100.203 86.8725C100.928 86.7849 101.652 86.71 102.383 86.6602C102.564 86.6475 102.739 86.6351 102.914 86.629C103.088 86.6113 103.263 86.6028 103.438 86.6039C103.445 86.5978 103.445 86.5978 103.451 86.6039C103.538 86.5978 103.632 86.5978 103.719 86.5978C104.163 86.579 104.606 86.579 105.05 86.5914H105.218C105.312 86.5914 105.399 86.5978 105.493 86.6039C105.637 86.6039 105.781 86.6102 105.924 86.6227C106.161 86.6351 106.399 86.6539 106.636 86.6727C106.874 86.6915 107.111 86.7163 107.348 86.7476C107.586 86.7788 107.823 86.8037 108.06 86.8413C108.273 86.8725 108.485 86.9037 108.698 86.9474C108.797 86.9662 108.903 86.985 109.01 87.0099C109.166 87.0411 109.328 87.0723 109.484 87.1099C109.722 87.1597 109.959 87.2221 110.196 87.2846C110.465 87.3598 110.74 87.4347 111.008 87.522Z" fill="#E6E7E8"/>
<path d="M111.008 88.1716V90.5764L110.384 90.439L110.365 90.4327C109.903 90.3077 109.503 90.214 109.128 90.1455C108.847 90.083 108.554 90.0266 108.26 89.9893C107.998 89.9393 107.704 89.9017 107.411 89.8705C107.061 89.8268 106.68 89.7892 106.305 89.7644C106.183 89.7511 106.06 89.7447 105.937 89.7456L105.743 89.7331C105.662 89.7268 105.624 89.7268 105.581 89.7268C105.493 89.7207 105.362 89.7143 105.231 89.7143C104.987 89.7083 104.725 89.7083 104.469 89.7083C104.275 89.7083 104.076 89.7083 103.882 89.7143H103.869C103.744 89.7143 103.607 89.7207 103.463 89.7268C103.32 89.7331 103.214 89.7331 103.12 89.7395C102.876 89.7456 102.608 89.758 102.333 89.7832H102.302C102.247 89.7851 102.193 89.7914 102.139 89.8019C101.958 89.808 101.777 89.8268 101.596 89.8393L101.327 89.8644C101.196 89.8768 101.071 89.8893 100.94 89.9081C100.721 89.9205 100.459 89.9517 100.203 89.9893C99.772 90.0391 99.3036 90.1015 98.8475 90.1704C98.5667 90.208 98.2669 90.2516 97.9733 90.3017L97.9233 90.3077C97.4612 90.3766 96.9927 90.4515 96.5303 90.5388L96.0182 90.6264V98.7584C95.1877 98.9021 94.3505 99.0519 93.52 99.1957V91.0697L92.7829 91.201C92.3332 91.2759 91.8772 91.3508 91.4275 91.4196C89.7286 91.688 88.3547 91.8505 87.1178 91.9318C86.3934 91.9818 85.6876 92.0067 85.0256 92.0067C83.0417 92.0277 81.065 91.767 79.1544 91.2322L78.5298 91.0448V88.5715L79.1544 88.7774C81.0662 89.2804 83.0365 89.5261 85.0132 89.5082C85.7063 89.5082 86.4371 89.4833 87.1867 89.4333C88.4796 89.3459 89.8474 89.1898 91.6212 88.9087C92.0773 88.8399 92.5455 88.765 93.0078 88.6776L93.52 88.59V80.458C94.3505 80.3143 95.1877 80.1645 96.0182 80.0208V88.1467L96.7553 88.0154C97.1049 87.9529 97.4673 87.8968 97.8233 87.8407H97.8296C97.8296 87.8407 98.2168 87.7783 98.2481 87.7783L98.6416 87.7158V87.7095C98.8102 87.6846 98.9788 87.6594 99.1474 87.6409C99.4349 87.597 99.9782 87.5284 99.9782 87.5284L100.278 87.4908C101.09 87.3971 101.777 87.3286 102.426 87.2847C102.608 87.2722 102.77 87.2598 102.939 87.2534C103.024 87.2418 103.109 87.2355 103.195 87.2349L103.207 87.2473L103.469 87.2285H103.688L103.694 87.2222H103.719C103.982 87.2098 104.219 87.2098 104.45 87.2098C104.644 87.2098 104.838 87.2098 105.031 87.2161H105.218C105.287 87.2161 105.356 87.2222 105.425 87.2285H105.493C105.618 87.2285 105.743 87.2349 105.874 87.2473C106.124 87.2598 106.355 87.2786 106.586 87.2974C106.817 87.3159 107.042 87.3347 107.267 87.3659C107.511 87.3911 107.735 87.4223 107.96 87.4596C108.185 87.4972 108.373 87.516 108.573 87.5597C108.704 87.5845 108.785 87.597 108.866 87.6158L108.966 87.6409L109.341 87.7158C109.578 87.7656 109.797 87.828 110.015 87.8844C110.015 87.8844 110.296 87.9593 110.384 87.9842L111.008 88.1716Z" fill="#E64C3C"/>
<path d="M106.624 97.9091C103.295 97.6216 99.9716 98.0777 96.6426 98.6459V92.8811C100.132 94.2135 103.476 95.8984 106.624 97.9091Z" fill="#285680"/>
<path d="M111.009 96.2474V97.5154C111.029 97.865 110.84 98.1936 110.528 98.3523C110.265 98.1276 110.014 98.3061 109.752 98.0875C109.758 98.0314 109.759 97.5779 109.759 97.5154V96.2474C107.203 93.9724 104.363 92.0389 101.309 90.495C101.396 90.4886 101.484 90.4762 101.571 90.4701C101.79 90.4513 102.002 90.4325 102.214 90.4201C102.274 90.4096 102.335 90.4052 102.396 90.4077C105.51 91.9684 108.406 93.9321 111.009 96.2474Z" fill="#E6E7E8"/>
<path d="M109.759 96.2475V97.5155C109.759 97.578 109.759 98.0315 109.752 98.0876C105.842 94.8835 101.178 92.6061 97.2676 90.9617C97.5675 90.9116 98.6418 90.8262 98.9414 90.7886C99.3913 90.7201 99.8471 90.6576 100.297 90.6076C100.541 90.5825 100.784 90.5512 101.027 90.5263C101.121 90.5139 101.215 90.5015 101.309 90.4951C104.363 92.039 107.203 93.9726 109.759 96.2475Z" fill="#E64C3C"/>
<path d="M109.759 96.2475V97.5155C109.759 97.578 109.759 97.8408 109.752 97.8972C106.38 95.0018 102.592 92.6288 98.5166 90.8575C98.8162 90.8074 98.6415 90.8262 98.9411 90.7886C99.3911 90.7201 99.8468 90.6576 100.297 90.6076C100.54 90.5825 100.784 90.5512 101.027 90.5263C101.121 90.5139 101.215 90.5015 101.308 90.4951C104.362 92.039 107.203 93.9726 109.759 96.2475Z" fill="#E64C3C"/>
<path d="M111.008 91.2694V96.2474C108.406 93.9321 105.51 91.9684 102.396 90.4077C102.651 90.3889 102.908 90.3764 103.164 90.364C103.245 90.3576 103.332 90.3513 103.413 90.3513H103.457C103.607 90.3452 103.751 90.3388 103.901 90.3388C104.05 90.3388 104.194 90.3328 104.344 90.3328C104.638 90.3328 104.931 90.3328 105.231 90.3388C105.35 90.3388 105.468 90.3452 105.581 90.3513C105.624 90.3513 105.662 90.3576 105.699 90.3576C105.781 90.364 105.862 90.364 105.937 90.3701C106.045 90.3701 106.154 90.3764 106.262 90.3889C106.624 90.4137 106.992 90.445 107.355 90.495C107.629 90.5262 107.904 90.5638 108.179 90.6075C108.454 90.6512 108.735 90.7012 109.01 90.7573C109.403 90.8322 109.797 90.9259 110.196 91.0323C110.465 91.1072 110.74 91.1821 111.008 91.2694Z" fill="#285680"/>
<path d="M92.8951 80.5703V86.3351C89.406 85.0027 86.0618 83.3178 82.9141 81.3074V81.3011C86.2586 81.484 89.6128 81.2383 92.8951 80.5703Z" fill="#285680"/>
<path d="M92.8951 86.3351V88.0652C92.4391 88.1465 91.977 88.2214 91.5209 88.2902C87.1925 86.4727 82.8768 84.3177 78.5483 80.4578C79.9676 80.9005 81.4321 81.1833 82.9141 81.301V81.3074C86.0618 83.3178 89.4061 85.0026 92.8951 86.3351Z" fill="#E6E7E8"/>
<path d="M91.5212 88.2904C90.0597 88.5215 88.6045 88.715 87.143 88.8087C84.0284 87.2479 81.1328 85.2845 78.5298 82.969V80.4517H78.5422L78.5486 80.458C78.7484 80.639 78.9546 80.814 79.1544 80.9826C82.6711 83.936 86.6347 86.3118 90.8965 88.0218C91.1027 88.1155 91.3153 88.2028 91.5212 88.2904Z" fill="#E6E7E8"/>
<path d="M91.2038 88.0728C90.1607 88.2228 88.8106 88.2903 87.7686 88.3588C84.6538 86.7981 81.7575 84.8346 79.1543 82.5191V80.9824C83.6306 83.935 87.2877 86.399 91.2038 88.0728Z" fill="#E64C3C"/>
<path d="M87.143 88.8084C84.2432 89.0713 81.3199 88.7786 78.5298 87.9467V82.9688C81.1328 85.2843 84.0284 87.2477 87.143 88.8084Z" fill="#285680"/>
<path d="M87.1554 92.5564V92.5625C84.5129 94.3753 81.6023 95.7619 78.5298 96.6723V91.6943C81.3243 92.5262 84.2515 92.8187 87.1554 92.5564Z" fill="#285680"/>
<path d="M92.8951 91.8127V93.5429C89.775 96.0044 86.4385 98.1784 82.9268 100.039H82.9205C81.4335 99.9221 79.9648 99.6372 78.542 99.1891C78.6921 99.1518 78.8482 99.1082 78.998 99.0581C80.0798 99.3331 81.1831 99.515 82.2958 99.6015L82.1209 99.2306C85.4438 97.5941 87.1621 94.5398 90.4848 92.0477L92.2705 91.9128C92.4767 91.8879 92.6889 91.8503 92.8951 91.8127Z" fill="#E6E7E8"/>
<path d="M91.9582 92.8222C88.9959 95.3705 85.7921 97.6238 82.3926 99.5505L82.3022 99.6016H82.2959C81.1831 99.5151 80.0798 99.3332 78.998 99.0582C83.1767 97.859 86.1403 95.3163 90.3187 92.2501C90.5685 92.2128 92.6453 92.0273 92.8951 91.9773L91.9582 92.8222Z" fill="#E64C3C"/>
<path d="M92.8951 93.543V99.308C89.6172 99.9758 86.2671 100.221 82.9268 100.039C86.4385 98.1785 89.775 96.0044 92.8951 93.543Z" fill="#285680"/>
<path d="M90.9822 91.8916C86.6543 95.0708 82.8707 98.0588 78.5422 99.1892H78.5298V96.6722C81.6023 95.7618 84.5129 94.3752 87.1554 92.5624V92.5563C88.4417 92.4015 89.7192 92.1796 90.9822 91.8916Z" fill="#E6E7E8"/>
<path d="M111.008 82.5442V87.5221C110.74 87.4348 110.465 87.3599 110.196 87.2847C109.959 87.2222 109.722 87.1598 109.484 87.11C109.322 87.0725 109.166 87.0349 109.01 87.01C108.904 86.9851 108.797 86.9663 108.698 86.9475C108.485 86.9039 108.273 86.8726 108.06 86.8414C107.823 86.8038 107.586 86.7665 107.348 86.7477C107.113 86.7104 106.875 86.6852 106.636 86.6728C106.399 86.6476 106.162 86.6291 105.924 86.6228C105.781 86.6103 105.637 86.604 105.493 86.604C105.4 86.5979 105.312 86.5915 105.219 86.5915H105.05C104.606 86.5791 104.163 86.5791 103.719 86.5979C103.632 86.5979 103.538 86.5979 103.451 86.604C103.445 86.5979 103.445 86.5979 103.438 86.604C103.263 86.6029 103.088 86.6114 102.914 86.6291C102.736 86.63 102.559 86.6402 102.383 86.6604V86.654C105.025 84.8415 107.936 83.4546 111.008 82.5442Z" fill="#285680"/>
<path d="M111.008 81.2762V82.544C107.936 83.4544 105.025 84.8412 102.383 86.6538V86.6601C101.658 86.7038 100.927 86.7787 100.203 86.8724C100.201 86.8707 100.199 86.8696 100.197 86.8696C100.194 86.8696 100.192 86.8707 100.19 86.8724C99.8219 86.9097 99.4535 86.9597 99.0848 87.0161C98.7352 87.0659 98.3853 87.1159 98.0357 87.1783L98.0293 87.1723C102.195 84.1055 106.361 81.3635 110.527 80.1519C110.822 80.4537 110.993 80.8544 111.008 81.2762Z" fill="#E6E7E8"/>
<path d="M110.527 80.152C106.361 81.3637 102.195 84.1057 98.0292 87.1724C98.0228 87.1724 98.0168 87.1724 98.0168 87.1785C97.7669 87.2161 97.5171 87.2534 97.2672 87.3034C97.061 87.3286 96.8488 87.3659 96.6426 87.4035V85.6733C99.9716 83.1812 103.295 80.8079 106.624 79.1714C107.68 79.2579 108.729 79.427 109.759 79.6772C109.988 79.7382 110.2 79.8516 110.377 80.0083H110.384C110.434 80.0583 110.484 80.102 110.527 80.152Z" fill="#E6E7E8"/>
<path d="M96.6948 86.7714C98.8291 85.0149 103.919 81.1387 107.249 79.5022C108.15 79.5752 109.043 79.7305 109.915 79.9665C109.872 79.9159 109.965 80.0157 109.915 79.9665C105.992 82.0156 104.049 83.3392 99.8826 86.4071L96.6948 86.7714Z" fill="#E64C3C"/>
<path d="M106.624 79.1713C103.295 80.8078 99.9716 83.1811 96.6426 85.6733V79.9082C99.9716 79.3399 103.295 78.8839 106.624 79.1713Z" fill="#285680"/>
<path d="M110.527 98.3522C110.287 98.4627 110.015 98.4849 109.759 98.4147C108.729 98.1645 107.68 97.9954 106.624 97.9089C103.476 95.8982 100.132 94.2134 96.6426 92.8809V91.1508C97.0986 91.0695 96.9549 91.004 97.4104 90.9352L97.5665 90.8965C102.14 92.9124 106.485 95.412 110.527 98.3522Z" fill="#E6E7E8"/>
</g>
<defs>
<filter id="filter0_d_111_2879" x="0.966797" y="0" width="187.411" height="187.411" filterUnits="userSpaceOnUse" color-interpolation-filters="sRGB">
<feFlood flood-opacity="0" result="BackgroundImageFix"/>
<feColorMatrix in="SourceAlpha" type="matrix" values="0 0 0 0 0 0 0 0 0 0 0 0 0 0 0 0 0 0 127 0" result="hardAlpha"/>
<feOffset dy="4"/>
<feGaussianBlur stdDeviation="32"/>
<feComposite in2="hardAlpha" operator="out"/>
<feColorMatrix type="matrix" values="0 0 0 0 0.6125 0 0 0 0 0.594635 0 0 0 0 0.594635 0 0 0 0.25 0"/>
<feBlend mode="normal" in2="BackgroundImageFix" result="effect1_dropShadow_111_2879"/>
<feBlend mode="normal" in="SourceGraphic" in2="effect1_dropShadow_111_2879" result="shape"/>
</filter>
<clipPath id="clip0_111_2879">
<rect width="32.6758" height="32.6758" fill="white" transform="translate(78.334 73.3674)"/>
</clipPath>
</defs>
</svg>
