<svg width="15" height="15" viewBox="0 0 15 15" fill="none" xmlns="http://www.w3.org/2000/svg">
<path d="M0.190214 4.87884H3.40489V15H0.190214V4.87884ZM1.81907 0C0.718821 0 0 0.75571 0 1.7476C0 2.7191 0.697786 3.49678 1.777 3.49678H1.7975C2.91879 3.49678 3.61707 2.71906 3.61707 1.7476C3.59604 0.75571 2.91882 0 1.81907 0ZM11.2978 4.64108C9.59143 4.64108 8.82696 5.62304 8.4005 6.31168V4.87884H5.18486C5.22743 5.82832 5.18486 15 5.18486 15H8.4005V9.34763C8.4005 9.0449 8.42154 8.74329 8.50614 8.52642C8.73897 7.92208 9.26804 7.29625 10.1555 7.29625C11.3199 7.29625 11.7849 8.22481 11.7849 9.58479V15H15V9.1963C15 6.08756 13.4142 4.64108 11.2978 4.64108Z" fill="white"/>
</svg>
