<svg width="130" height="70" viewBox="0 0 130 70" fill="none" xmlns="http://www.w3.org/2000/svg">
<g clip-path="url(#clip0_109_2067)">
<path d="M6.27477 61.928H5.13964V47.1082H0V46.0676H11.4144V47.1082H6.27477V61.928Z" fill="#8ECEE6"/>
<path d="M22.4505 61.928H13.7793V46.0676H22.4505V47.0766H14.8829V53.0676H22.0406V54.1082H14.8829V60.919H22.4505V61.928Z" fill="#8ECEE6"/>
<path fill-rule="evenodd" clip-rule="evenodd" d="M27.1485 55.0226V61.928H26.0449V46.0676H29.8287C31.8047 46.0676 33.2551 46.425 34.1801 47.1397C35.126 47.8754 35.599 48.9685 35.599 50.419C35.599 51.491 35.3257 52.395 34.7792 53.1307C34.2116 53.8664 33.3497 54.3919 32.1936 54.7073L36.5134 61.928H35.1891L31.09 55.0226H27.1485ZM27.1485 54.0451H30.1756C31.5209 54.0451 32.5614 53.7508 33.2972 53.1622C34.0329 52.5736 34.4008 51.6907 34.4008 50.5136C34.4008 49.3154 34.0434 48.4325 33.3287 47.8649C32.593 47.3184 31.4158 47.0451 29.7972 47.0451H27.1485V54.0451Z" fill="#8ECEE6"/>
<path fill-rule="evenodd" clip-rule="evenodd" d="M40.3604 55.0226V61.928H39.2568V46.0676H43.0406C45.0166 46.0676 46.4776 46.425 47.4235 47.1397C48.3484 47.8754 48.8109 48.9685 48.8109 50.419C48.8109 51.491 48.5376 52.395 47.9911 53.1307C47.4235 53.8664 46.5722 54.3919 45.437 54.7073L49.7253 61.928H48.401L44.3019 55.0226H40.3604ZM40.3604 54.0451H43.3875C44.7328 54.0451 45.7734 53.7508 46.5091 53.1622C47.2448 52.5736 47.6127 51.6907 47.6127 50.5136C47.6127 49.3154 47.2553 48.4325 46.5406 47.8649C45.8259 47.3184 44.6487 47.0451 43.0091 47.0451H40.3604V54.0451Z" fill="#8ECEE6"/>
<path fill-rule="evenodd" clip-rule="evenodd" d="M60.1304 56.3152H53.6664L51.4592 61.9278H50.2295L56.6304 46.0044H57.3241L63.5673 61.9278H62.3376L60.1304 56.3152ZM54.0763 55.3062H59.752L57.6079 49.599C57.4187 49.1576 57.198 48.5374 56.9457 47.7386C56.7565 48.4323 56.5463 49.063 56.3151 49.6305L54.0763 55.3062Z" fill="#8ECEE6"/>
<path d="M79.6485 61.928H75.3918L68.4863 49.9145H68.3918C68.5179 52.0376 68.5809 53.5511 68.5809 54.455V61.928H65.5854V46.0676H69.8107L76.7161 57.955H76.7791C76.674 55.895 76.6215 54.434 76.6215 53.5721V46.0676H79.6485V61.928Z" fill="white"/>
<path fill-rule="evenodd" clip-rule="evenodd" d="M98.0631 53.9821C98.0631 56.6097 97.4114 58.6277 96.1081 60.0361C94.8048 61.4446 92.9339 62.1488 90.4955 62.1488C88.0781 62.1488 86.2177 61.4446 84.9144 60.0361C83.6111 58.6277 82.9595 56.5992 82.9595 53.9506C82.9595 51.3019 83.6111 49.2839 84.9144 47.8965C86.2177 46.5091 88.0886 45.8154 90.527 45.8154C92.9655 45.8154 94.8363 46.5196 96.1396 47.928C97.4219 49.3154 98.0631 51.3334 98.0631 53.9821ZM86.491 53.9821C86.491 55.7479 86.8273 57.0827 87.5 57.9866C88.1727 58.8695 89.1712 59.3109 90.4955 59.3109C93.1862 59.3109 94.5315 57.5346 94.5315 53.9821C94.5315 50.4085 93.1967 48.6217 90.527 48.6217C89.1817 48.6217 88.1727 49.0632 87.5 49.9461C86.8273 50.85 86.491 52.1953 86.491 53.9821Z" fill="white"/>
<path d="M110.424 46.0676H113.829L108.406 61.928H104.748L99.356 46.0676H102.761L105.757 55.4956C105.925 56.0631 106.093 56.7148 106.261 57.4505C106.43 58.1862 106.545 58.7013 106.608 58.9956C106.671 58.3229 106.934 57.1562 107.396 55.4956L110.424 46.0676Z" fill="white"/>
<path fill-rule="evenodd" clip-rule="evenodd" d="M125.527 61.9278L124.392 58.144H118.59L117.455 61.9278H113.829L119.41 46.0044H123.54L129.153 61.9278H125.527ZM123.572 55.3377C122.521 51.9113 121.922 49.9669 121.775 49.5044C121.648 49.063 121.554 48.7161 121.491 48.4639C121.26 49.3888 120.576 51.6801 119.441 55.3377H123.572Z" fill="white"/>
<path d="M24.2476 69.8109V66.0271H24.5313V69.5586H26.3286V69.8109H24.2476Z" fill="white"/>
<path fill-rule="evenodd" clip-rule="evenodd" d="M31.09 68.4866H29.5449L29.0404 69.8109H28.7251L30.2701 66.0271H30.4278L31.9098 69.8109H31.626L31.09 68.4866ZM29.6395 68.2658H30.9954L30.4909 66.8785C30.4488 66.7733 30.3963 66.6262 30.3332 66.437C30.2912 66.6052 30.2386 66.7628 30.1755 66.91L29.6395 68.2658Z" fill="white"/>
<path d="M37.4908 69.8109H37.2385L34.9998 66.4685H34.9683C34.9893 66.8679 34.9998 67.1622 34.9998 67.3514V69.8109H34.7476V66.0271H35.0313L37.2701 69.401C37.2491 69.0857 37.2385 68.7809 37.2385 68.4866V66.0271H37.4908V69.8109Z" fill="white"/>
<path d="M42.347 67.9188H43.7659V69.6215C43.3875 69.7897 42.9776 69.8738 42.5361 69.8738C41.9265 69.8738 41.4641 69.7056 41.1488 69.3693C40.8334 69.0329 40.6758 68.5495 40.6758 67.9188C40.6758 67.5404 40.7494 67.2041 40.8965 66.9098C41.0647 66.6155 41.2959 66.3843 41.5902 66.2161C41.8845 66.048 42.2208 65.9639 42.5992 65.9639C43.0196 65.9639 43.3875 66.048 43.7028 66.2161L43.6082 66.4368C43.2719 66.2897 42.9355 66.2161 42.5992 66.2161C42.0947 66.2161 41.6953 66.3738 41.401 66.6891C41.1067 66.9834 40.9596 67.3933 40.9596 67.9188C40.9596 68.4864 41.0962 68.9173 41.3695 69.2116C41.6427 69.4849 42.0527 69.6215 42.5992 69.6215C42.9566 69.6215 43.2509 69.5795 43.4821 69.4954V68.1711H42.347V67.9188Z" fill="white"/>
<path d="M49.7885 66.0271V68.4866C49.7885 68.928 49.6624 69.2643 49.4101 69.4956C49.1579 69.7478 48.811 69.874 48.3696 69.874C47.9282 69.874 47.5813 69.7478 47.3291 69.4956C47.0768 69.2433 46.9507 68.907 46.9507 68.4866V66.0271H47.2345V68.4866C47.2345 68.8439 47.3291 69.1277 47.5183 69.3379C47.7285 69.5271 48.0228 69.6217 48.4011 69.6217C48.7585 69.6217 49.0318 69.5271 49.221 69.3379C49.4312 69.1277 49.5363 68.8544 49.5363 68.5181V66.0271H49.7885Z" fill="white"/>
<path fill-rule="evenodd" clip-rule="evenodd" d="M54.9281 68.4866H53.4145L52.8785 69.8109H52.5947L54.1082 66.0271H54.2659L55.7479 69.8109H55.4641L54.9281 68.4866ZM53.4776 68.2658H54.8335L54.329 66.8785C54.2869 66.7733 54.2344 66.6262 54.1713 66.437C54.1293 66.6052 54.0767 66.7628 54.0136 66.91L53.4776 68.2658Z" fill="white"/>
<path d="M60.0992 67.9188H61.4866V69.6215C61.1082 69.7897 60.6983 69.8738 60.2568 69.8738C59.6472 69.8738 59.1848 69.7056 58.8695 69.3693C58.5541 69.0329 58.3965 68.5495 58.3965 67.9188C58.3965 67.5404 58.4701 67.2041 58.6172 66.9098C58.7854 66.6155 59.0166 66.3843 59.3109 66.2161C59.6052 66.048 59.9415 65.9639 60.3199 65.9639C60.7403 65.9639 61.1082 66.048 61.4235 66.2161L61.3289 66.4368C60.9926 66.2897 60.6562 66.2161 60.3199 66.2161C59.8154 66.2161 59.416 66.3738 59.1217 66.6891C58.8274 66.9834 58.6803 67.3933 58.6803 67.9188C58.6803 68.4864 58.8169 68.9173 59.0902 69.2116C59.3635 69.4849 59.7734 69.6215 60.3199 69.6215C60.6773 69.6215 60.9716 69.5795 61.2028 69.4954V68.1711H60.0992V67.9188Z" fill="white"/>
<path d="M66.7839 69.8109H64.7344V66.0271H66.7839V66.2794H64.9866V67.6983H66.6893V67.9505H64.9866V69.5586H66.7839V69.8109Z" fill="white"/>
<path d="M76.779 66.2161C76.2955 66.2161 75.9172 66.3633 75.6439 66.6576C75.3706 66.9729 75.234 67.3933 75.234 67.9188C75.234 68.4654 75.3706 68.8858 75.6439 69.1801C75.8961 69.4744 76.264 69.6215 76.7475 69.6215C77.0628 69.6215 77.3466 69.5795 77.5988 69.4954V69.7477C77.3466 69.8317 77.0418 69.8738 76.6844 69.8738C76.1379 69.8738 75.7175 69.6951 75.4232 69.3377C75.1079 69.0014 74.9502 68.5284 74.9502 67.9188C74.9502 67.5404 75.0238 67.2041 75.1709 66.9098C75.3181 66.6155 75.5283 66.3843 75.8015 66.2161C76.0748 66.048 76.3901 65.9639 76.7475 65.9639C77.1259 65.9639 77.4622 66.0374 77.7565 66.1846L77.6304 66.4368C77.3571 66.2897 77.0733 66.2161 76.779 66.2161Z" fill="white"/>
<path d="M82.8335 69.8109H80.7524V66.0271H82.8335V66.2794H81.0047V67.6983H82.7074V67.9505H81.0047V69.5586H82.8335V69.8109Z" fill="white"/>
<path d="M88.7296 69.8109H88.4458L86.207 66.4685C86.2281 66.8679 86.2386 67.1622 86.2386 67.3514V69.8109H85.9863V66.0271H86.2386L88.4773 69.401H88.5089C88.4878 69.0857 88.4773 68.7809 88.4773 68.4866V66.0271H88.7296V69.8109Z" fill="white"/>
<path d="M93.0811 69.8109H92.8288V66.2794H91.5991V66.0271H94.3108V66.2794H93.0811V69.8109Z" fill="white"/>
<path d="M99.2297 69.8109H97.1802V66.0271H99.2297V66.2794H97.4324V67.6983H99.1351V67.9505H97.4324V69.5586H99.2297V69.8109Z" fill="white"/>
<path fill-rule="evenodd" clip-rule="evenodd" d="M102.667 68.1712V69.8109H102.383V66.0271H103.297C103.76 66.0271 104.107 66.1112 104.338 66.2794C104.569 66.4685 104.685 66.7313 104.685 67.0676C104.685 67.3199 104.611 67.5406 104.464 67.7298C104.338 67.898 104.138 68.0241 103.865 68.1082L104.905 69.8109H104.59L103.613 68.1712H102.667ZM102.667 67.9505H103.392C103.707 67.9505 103.949 67.877 104.117 67.7298C104.285 67.5827 104.369 67.3724 104.369 67.0992C104.369 66.8049 104.285 66.5947 104.117 66.4685C103.949 66.3424 103.665 66.2794 103.266 66.2794H102.667V67.9505Z" fill="white"/>
<path d="M60.4776 30.491C58.3965 32.509 55.5902 33.7703 52.4686 33.7703C46.1623 33.7703 41.0542 28.6622 41.0542 22.3559C41.0542 16.018 46.1623 10.9099 52.4686 10.9099C53.4146 10.9099 54.329 11.036 55.2119 11.2568C54.5182 13.0856 54.1398 15.0721 54.1083 17.1216C53.6037 16.9535 53.0572 16.8694 52.4686 16.8694C49.4731 16.8694 47.0137 19.3288 47.0137 22.3559C47.0137 25.3514 49.4731 27.8108 52.4686 27.8108C54.0767 27.8108 55.5272 27.1171 56.5362 25.982C57.5767 27.7162 58.901 29.2613 60.4776 30.491Z" fill="#8ECEE6"/>
<path d="M69.1485 36.8603C69.0854 37.9324 67.9818 38.7207 66.7206 38.6261C65.4278 38.5315 64.4503 37.5855 64.5449 36.5135C64.608 35.4414 65.7116 34.6216 67.0044 34.7162C68.2656 34.8108 69.2431 35.7567 69.1485 36.8603Z" fill="white"/>
<path d="M50.9551 35.6622C50.892 36.2928 50.2614 36.7658 49.4731 36.7027C48.7163 36.6396 48.1488 36.0721 48.2118 35.4414C48.2749 34.8108 48.9055 34.3378 49.6623 34.4009C50.4506 34.464 51.0181 35.0315 50.9551 35.6622Z" fill="#8ECEE6"/>
<path fill-rule="evenodd" clip-rule="evenodd" d="M88.0989 17.2477C88.0989 26.6441 80.4683 34.2432 71.1034 34.2432C67.0674 34.2432 63.3782 32.8558 60.4773 30.4909C58.9007 29.2612 57.5764 27.7162 56.5358 25.9819C54.9908 23.4279 54.1079 20.4639 54.1079 17.2477C54.1079 17.2057 54.1079 17.1636 54.1079 17.1216C54.1394 15.072 54.5178 13.0855 55.2115 11.2567C57.6394 4.82427 63.8196 0.252197 71.1034 0.252197C80.4683 0.252197 88.0989 7.88283 88.0989 17.2477ZM81.1304 17.2477C81.1304 11.7297 76.6214 7.2522 71.1034 7.2522C66.3106 7.2522 62.3061 10.5945 61.3286 15.1035C61.1605 15.7972 61.0764 16.512 61.0764 17.2477C61.0764 19.8963 62.1169 22.2927 63.7566 24.09C65.5854 26.045 68.2025 27.2747 71.1034 27.2747C76.6214 27.2747 81.1304 22.7972 81.1304 17.2477Z" fill="white"/>
</g>
<defs>
<clipPath id="clip0_109_2067">
<rect width="129.279" height="70" fill="white"/>
</clipPath>
</defs>
</svg>
