<svg width="20" height="20" viewBox="0 0 20 20" fill="none" xmlns="http://www.w3.org/2000/svg">
<path fill-rule="evenodd" clip-rule="evenodd" d="M17.086 2.90645C15.2059 1.03317 12.7056 0.00108619 10.0417 0C4.55296 0 0.0856553 4.44559 0.0835129 9.90983C0.0827449 11.6566 0.541299 13.3615 1.41277 14.8644L0 20L5.27899 18.6219C6.73347 19.4114 8.37111 19.8276 10.0378 19.8281H10.0418C10.0415 19.8281 10.0421 19.8281 10.0418 19.8281C15.53 19.8281 19.9977 15.3821 20 9.91775C20.001 7.26961 18.9661 4.77965 17.086 2.90645ZM10.0418 18.1544H10.0384C8.5533 18.1538 7.09659 17.7567 5.82578 17.0062L5.52358 16.8277L2.39095 17.6455L3.22714 14.6058L3.03032 14.2941C2.20182 12.9827 1.76424 11.4668 1.76489 9.91039C1.76667 5.36873 5.47972 1.67382 10.0451 1.67382C12.2558 1.67451 14.334 2.53248 15.8967 4.08948C17.4594 5.64648 18.3195 7.71608 18.3186 9.91707C18.3167 14.4591 14.6038 18.1544 10.0418 18.1544Z" fill="white"/>
<path fill-rule="evenodd" clip-rule="evenodd" d="M14.1765 11.7409C13.9593 11.6322 12.8917 11.1069 12.6927 11.0344C12.4936 10.962 12.3488 10.9257 12.2041 11.1431C12.0594 11.3605 11.6432 11.8496 11.5165 11.9946C11.3899 12.1394 11.2631 12.1577 11.046 12.0489C10.8289 11.9402 10.1292 11.7109 9.29979 10.9711C8.65421 10.3953 8.21843 9.6842 8.09171 9.46674C7.96506 9.2494 8.07823 9.13189 8.18696 9.02358C8.28464 8.92625 8.40413 8.76997 8.51271 8.64315C8.62126 8.5164 8.65746 8.42573 8.72985 8.28092C8.80224 8.13596 8.76608 8.00914 8.71175 7.90048C8.65746 7.79179 8.22319 6.72295 8.04225 6.28808C7.86593 5.86471 7.68693 5.92207 7.55362 5.91533C7.42715 5.90902 7.28219 5.90771 7.13745 5.90771C6.9927 5.90771 6.7574 5.96208 6.5584 6.17942C6.35936 6.39684 5.79834 6.92223 5.79834 7.99097C5.79834 9.05985 6.57646 10.0924 6.68504 10.2373C6.79359 10.3823 8.21627 12.5756 10.3946 13.5162C10.9127 13.74 11.3172 13.8736 11.6325 13.9736C12.1527 14.1389 12.6261 14.1156 13.0003 14.0597C13.4175 13.9973 14.2851 13.5344 14.466 13.0272C14.647 12.5199 14.647 12.0851 14.5927 11.9945C14.5384 11.904 14.3936 11.8496 14.1765 11.7409Z" fill="white"/>
</svg>
