<svg width="189" height="189" viewBox="0 0 189 189" fill="none" xmlns="http://www.w3.org/2000/svg">
<g filter="url(#filter0_d_111_2953)">
<circle cx="94.4145" cy="90.1748" r="30.0766" fill="#B9DCCB"/>
<circle cx="94.4145" cy="90.1748" r="28.5766" stroke="white" stroke-width="3"/>
</g>
<g clip-path="url(#clip0_111_2953)">
<path d="M99.2939 85.7205H110.381V102.691H99.2939V85.7205Z" fill="#CD1922"/>
<path d="M99.2941 80.6294H93.3262L89.9321 89.1146L93.3262 97.5997H96.7485L101.84 100.145V83.1749C101.84 81.7691 100.7 80.6294 99.2941 80.6294Z" fill="#FF1A1A"/>
<path d="M84.8128 80.6294L81.9844 89.9631L84.8128 97.5997H93.3262V80.6294H84.8128Z" fill="#206C11"/>
<path d="M81.4185 80.6294H84.8125V97.5997H81.4185V80.6294Z" fill="#18551A"/>
<path d="M93.3258 84.7021L91.1196 89.1144L93.3258 93.5267C95.7626 93.5267 97.7381 91.5513 97.7381 89.1144C97.7381 86.6776 95.7626 84.7021 93.3258 84.7021Z" fill="#FFBD1E"/>
<path d="M88.9136 89.1144C88.9136 91.5513 90.889 93.5267 93.3259 93.5267V84.7021C90.889 84.7021 88.9136 86.6776 88.9136 89.1144Z" fill="#FFDE1F"/>
<path d="M94.1744 88.2659H93.3259L92.7603 89.1144L93.3259 89.9629H94.1744V88.2659Z" fill="#FFEF8F"/>
<path d="M92.4775 88.2659H93.3261V89.9629H92.4775V88.2659Z" fill="white"/>
<path d="M99.2941 97.5996H96.7485V100.145C96.7485 101.551 97.8882 102.691 99.2941 102.691C100.7 102.691 101.84 101.551 101.84 100.145C101.84 98.7393 100.7 97.5996 99.2941 97.5996Z" fill="#991624"/>
</g>
<circle cx="117.436" cy="113.196" r="10.0255" fill="#66B684"/>
<path d="M121.149 110.412L116.043 115.517L113.723 113.196" stroke="white" stroke-width="1.5" stroke-linecap="round" stroke-linejoin="round"/>
<defs>
<filter id="filter0_d_111_2953" x="0.337891" y="0.0981445" width="188.153" height="188.153" filterUnits="userSpaceOnUse" color-interpolation-filters="sRGB">
<feFlood flood-opacity="0" result="BackgroundImageFix"/>
<feColorMatrix in="SourceAlpha" type="matrix" values="0 0 0 0 0 0 0 0 0 0 0 0 0 0 0 0 0 0 127 0" result="hardAlpha"/>
<feOffset dy="4"/>
<feGaussianBlur stdDeviation="32"/>
<feComposite in2="hardAlpha" operator="out"/>
<feColorMatrix type="matrix" values="0 0 0 0 0.6125 0 0 0 0 0.594635 0 0 0 0 0.594635 0 0 0 0.25 0"/>
<feBlend mode="normal" in2="BackgroundImageFix" result="effect1_dropShadow_111_2953"/>
<feBlend mode="normal" in="SourceGraphic" in2="effect1_dropShadow_111_2953" result="shape"/>
</filter>
<clipPath id="clip0_111_2953">
<rect width="28.9627" height="28.9627" fill="white" transform="translate(81.4185 77.1787)"/>
</clipPath>
</defs>
</svg>
