<svg width="14" height="12" viewBox="0 0 14 12" fill="none" xmlns="http://www.w3.org/2000/svg">
<path d="M6.53126 0.59681C6.69457 0.094202 7.40562 0.0942023 7.56893 0.59681L8.64234 3.90042C8.71537 4.1252 8.92483 4.27738 9.16117 4.27738L12.6348 4.27738C13.1633 4.27738 13.383 4.95364 12.9555 5.26426L10.1452 7.30601C9.95403 7.44493 9.87402 7.69116 9.94706 7.91594L11.0205 11.2196C11.1838 11.7222 10.6085 12.1401 10.181 11.8295L7.37075 9.78773C7.17955 9.64882 6.92064 9.64882 6.72944 9.78773L3.91921 11.8295C3.49167 12.1401 2.91641 11.7222 3.07972 11.2196L4.15313 7.91594C4.22616 7.69116 4.14616 7.44493 3.95495 7.30601L1.14473 5.26426C0.717188 4.95364 0.936916 4.27738 1.46539 4.27738L4.93901 4.27738C5.17535 4.27738 5.38482 4.1252 5.45785 3.90042L6.53126 0.59681Z" fill="#E64C3C"/>
</svg>
