<svg width="48" height="40" viewBox="0 0 48 40" fill="none" xmlns="http://www.w3.org/2000/svg">
<g clip-path="url(#clip0_196_1334)">
<path d="M27.2963 9.96279H23.5493C21.9859 9.96279 20.4474 10.7072 19.6037 11.6998L17.3704 4.99983H10.2485L4.31778 22.3702H8.51148L10.3478 17.4072H17.3704V27.3332H4.96296C2.23333 27.3332 0 25.0998 0 22.3702V4.99983C0 2.2702 2.23333 0.0368652 4.96296 0.0368652H22.3333C25.063 0.0368652 27.2963 2.2702 27.2963 4.99983V9.96279ZM16.1544 14.9258H11.1419L13.6233 7.65501L16.1544 14.9258ZM24.8148 12.4443H42.1852C44.9148 12.4443 47.1481 14.6776 47.1481 17.4072V34.7776C47.1481 37.5072 44.9148 39.7406 42.1852 39.7406H24.8148C22.0852 39.7406 19.8519 37.5072 19.8519 34.7776V17.4072C19.8519 14.6776 22.0852 12.4443 24.8148 12.4443ZM42.8056 24.8517V22.1717H34.9393V16.7869H32.0607V22.1717H24.1944V24.8517H27.3707C27.6437 26.9609 28.7604 29.4424 30.547 31.3532C28.3881 32.2465 25.857 32.8917 24.8148 32.8917C24.79 32.9413 25.3607 35.2987 25.3111 36.5146C27.3956 36.5146 30.7952 35.2739 33.4504 33.6609C36.1552 35.2739 39.6044 36.5146 41.7385 36.5146C41.6889 35.2987 42.2348 32.9413 42.2348 32.8917C41.1678 32.8917 38.5374 32.2217 36.3289 31.3283C38.0659 29.4176 39.1578 26.9361 39.4307 24.8517H42.8056ZM33.3511 29.6409C32.1104 28.4995 31.2419 26.8369 30.8448 24.8517H36.0311C35.6093 26.8369 34.7656 28.4995 33.5496 29.6409L33.4504 29.7154C33.4504 29.7154 33.3759 29.6658 33.3511 29.6409Z" fill="#143763"/>
</g>
<defs>
<clipPath id="clip0_196_1334">
<rect width="47.4074" height="40" fill="white"/>
</clipPath>
</defs>
</svg>
