<svg width="18" height="15" viewBox="0 0 18 15" fill="none" xmlns="http://www.w3.org/2000/svg">
<path d="M17.5501 1.68758C16.8977 1.97378 16.2025 2.16349 15.4776 2.2556C16.2233 1.8104 16.7924 1.1108 17.06 0.267557C16.3647 0.682052 15.5972 0.974829 14.7791 1.13821C14.119 0.435329 13.1782 0 12.1518 0C10.1605 0 8.55733 1.61631 8.55733 3.59777C8.55733 3.88287 8.58146 4.15701 8.64067 4.41798C5.65039 4.27214 3.00443 2.83896 1.22692 0.655735C0.916601 1.19414 0.734574 1.8104 0.734574 2.47381C0.734574 3.71948 1.37605 4.82371 2.33224 5.46299C1.75436 5.45203 1.18745 5.28426 0.707161 5.01999C0.707161 5.03095 0.707161 5.04521 0.707161 5.05946C0.707161 6.80736 1.95393 8.25918 3.58888 8.59363C3.29611 8.67368 2.97701 8.71206 2.64585 8.71206C2.41558 8.71206 2.18311 8.6989 1.9649 8.65065C2.43093 10.0751 3.75337 11.1223 5.32581 11.1563C4.10207 12.1135 2.54826 12.6903 0.86616 12.6903C0.571189 12.6903 0.28828 12.6772 0.00537109 12.641C1.59865 13.6684 3.48691 14.2551 5.52319 14.2551C12.1419 14.2551 15.7605 8.77237 15.7605 4.01994C15.7605 3.86094 15.7551 3.70742 15.7474 3.555C16.4612 3.0484 17.0611 2.41569 17.5501 1.68758Z" fill="white"/>
</svg>
